<svg xmlns="http://www.w3.org/2000/svg" width="24" height="25" viewBox="0 0 24 25" fill="none">
  <path d="M6.96 0.5H17.04C20.88 0.5 24 3.62 24 7.46V17.54C24 19.3859 23.2667 21.1562 21.9615 22.4615C20.6562 23.7667 18.8859 24.5 17.04 24.5H6.96C3.12 24.5 0 21.38 0 17.54V7.46C0 5.61409 0.733284 3.84379 2.03854 2.53854C3.34379 1.23328 5.11409 0.5 6.96 0.5ZM6.72 2.9C5.57427 2.9 4.47546 3.35514 3.6653 4.1653C2.85514 4.97546 2.4 6.07427 2.4 7.22V17.78C2.4 20.168 4.332 22.1 6.72 22.1H17.28C18.4257 22.1 19.5245 21.6449 20.3347 20.8347C21.1449 20.0245 21.6 18.9257 21.6 17.78V7.22C21.6 4.832 19.668 2.9 17.28 2.9H6.72ZM18.3 4.7C18.6978 4.7 19.0794 4.85804 19.3607 5.13934C19.642 5.42064 19.8 5.80218 19.8 6.2C19.8 6.59783 19.642 6.97936 19.3607 7.26066C19.0794 7.54197 18.6978 7.7 18.3 7.7C17.9022 7.7 17.5206 7.54197 17.2393 7.26066C16.958 6.97936 16.8 6.59783 16.8 6.2C16.8 5.80218 16.958 5.42064 17.2393 5.13934C17.5206 4.85804 17.9022 4.7 18.3 4.7ZM12 6.5C13.5913 6.5 15.1174 7.13214 16.2426 8.25736C17.3679 9.38258 18 10.9087 18 12.5C18 14.0913 17.3679 15.6174 16.2426 16.7426C15.1174 17.8679 13.5913 18.5 12 18.5C10.4087 18.5 8.88258 17.8679 7.75736 16.7426C6.63214 15.6174 6 14.0913 6 12.5C6 10.9087 6.63214 9.38258 7.75736 8.25736C8.88258 7.13214 10.4087 6.5 12 6.5ZM12 8.9C11.0452 8.9 10.1295 9.27928 9.45442 9.95442C8.77928 10.6295 8.4 11.5452 8.4 12.5C8.4 13.4548 8.77928 14.3705 9.45442 15.0456C10.1295 15.7207 11.0452 16.1 12 16.1C12.9548 16.1 13.8705 15.7207 14.5456 15.0456C15.2207 14.3705 15.6 13.4548 15.6 12.5C15.6 11.5452 15.2207 10.6295 14.5456 9.95442C13.8705 9.27928 12.9548 8.9 12 8.9Z" fill="white"/>
</svg>