<svg xmlns="http://www.w3.org/2000/svg" width="98" height="32" viewBox="0 0 98 32" fill="none">
  <g clip-path="url(#clip0_108_112)">
    <path d="M42.4666 31.5384H34.5279L39.4933 0.561523H47.4316L42.4666 31.5384Z" fill="#00579F"/>
    <path d="M71.245 1.31881C69.6792 0.692035 67.1956 0 64.1246 0C56.2849 0 50.7643 4.21791 50.7304 10.2482C50.6653 14.6974 54.683 17.1686 57.688 18.6521C60.7594 20.168 61.8034 21.1574 61.8034 22.5086C61.7722 24.5839 59.3216 25.5404 57.0359 25.5404C53.8665 25.5404 52.1682 25.0473 49.5874 23.8927L48.542 23.3978L47.4311 30.3514C49.293 31.2072 52.7234 31.9667 56.2849 32C64.6148 32 70.0377 27.8474 70.102 21.4211C70.1337 17.8948 68.0121 15.1928 63.4383 12.9848C60.6617 11.5675 58.9613 10.6118 58.9613 9.16157C58.9938 7.8432 60.3995 6.49286 63.5338 6.49286C66.1146 6.42672 68.0108 7.05262 69.4473 7.67895L70.1654 8.00789L71.245 1.31881Z" fill="#00579F"/>
    <path d="M81.7962 20.5644C82.45 18.7848 84.9657 11.8973 84.9657 11.8973C84.9327 11.9634 85.6182 10.0849 86.0102 8.93163L86.565 11.6008C86.565 11.6008 88.0683 19.0156 88.3948 20.5644C87.1541 20.5644 83.3642 20.5644 81.7962 20.5644ZM91.5955 0.561523H85.4549C83.5613 0.561523 82.1227 1.12128 81.3057 3.13169L69.5138 31.5379H77.8436C77.8436 31.5379 79.215 27.7147 79.5097 26.8912C80.4235 26.8912 88.5268 26.8912 89.7023 26.8912C89.9303 27.9788 90.6496 31.5379 90.6496 31.5379H98L91.5955 0.561523Z" fill="#00579F"/>
    <path d="M27.8972 0.561523L20.1226 21.6848L19.273 17.4007C17.8357 12.4575 13.3278 7.08679 8.29727 4.41633L15.4185 31.5055H23.8135L36.2917 0.561523H27.8972Z" fill="#00579F"/>
    <path d="M12.9032 0.561523H0.130668L0 1.18742C9.96341 3.75802 16.562 9.95435 19.273 17.402L16.4964 3.16541C16.0393 1.18698 14.6345 0.626785 12.9032 0.561523Z" fill="#FAA61A"/>
  </g>
  <defs>
    <clipPath id="clip0_108_112">
      <rect width="98" height="32" fill="white"/>
    </clipPath>
  </defs>
</svg>