<svg xmlns="http://www.w3.org/2000/svg" width="39" height="31" viewBox="0 0 39 31" fill="none">
  <path d="M17.0122 1.29942C16.4982 0.78755 15.8012 0.5 15.0744 0.5C14.3476 0.5 13.6506 0.78755 13.1366 1.29942L0.802509 13.5861C0.288669 14.0981 9.02446e-06 14.7925 9.02446e-06 15.5165C9.02446e-06 16.2405 0.288669 16.9348 0.802509 17.4469L13.1366 29.7335C13.6535 30.2309 14.3459 30.5061 15.0645 30.4999C15.7832 30.4937 16.4706 30.2065 16.9788 29.7003C17.487 29.1941 17.7753 28.5092 17.7815 27.7933C17.7878 27.0775 17.5115 26.3878 17.0122 25.8728L9.59259 18.2469H35.6312C36.3581 18.2469 37.0553 17.9592 37.5693 17.4472C38.0833 16.9351 38.3721 16.2406 38.3721 15.5165C38.3721 14.7923 38.0833 14.0979 37.5693 13.5858C37.0553 13.0738 36.3581 12.7861 35.6312 12.7861H9.59259L17.0122 5.16017C17.5261 4.64815 17.8147 3.95379 17.8147 3.22979C17.8147 2.50579 17.5261 1.81144 17.0122 1.29942Z" fill="white"/>
</svg>