<svg xmlns="http://www.w3.org/2000/svg" width="49" height="40" viewBox="0 0 49 40" fill="none">
  <path d="M3.41013 28.1118L46.2862 28.1118C47.1969 28.1118 47.9352 27.3785 47.9352 26.4739V3.54278C47.9352 2.63817 47.1969 1.90484 46.2862 1.90484L3.41013 1.90484C2.49936 1.90484 1.76105 2.63817 1.76105 3.54278V26.4739C1.76105 27.3785 2.49936 28.1118 3.41013 28.1118Z" stroke="white" stroke-width="2" stroke-linejoin="round"/>
  <path d="M4.88092 33.1035H44.8154M8.20879 38.0953H41.4875" stroke="white" stroke-width="2" stroke-linecap="round" stroke-linejoin="round"/>
  <path d="M24.8481 23.1203C29.3281 23.1203 32.9598 19.4886 32.9598 15.0087C32.9598 10.5287 29.3281 6.89697 24.8481 6.89697C20.3682 6.89697 16.7365 10.5287 16.7365 15.0087C16.7365 19.4886 20.3682 23.1203 24.8481 23.1203Z" stroke="white" stroke-width="2" stroke-linecap="round" stroke-linejoin="round"/>
  <path d="M47.9352 10.0945C45.7484 10.0945 43.6512 9.23163 42.1049 7.69576C40.5586 6.1599 39.6898 4.07682 39.6898 1.90479M1.76105 10.0945C2.84385 10.0945 3.91605 9.88263 4.91642 9.47106C5.9168 9.05949 6.82576 8.45625 7.59142 7.69576C8.35708 6.93528 8.96443 6.03246 9.3788 5.03884C9.79317 4.04522 10.0064 2.98027 10.0064 1.90479M47.9352 19.9221C45.7484 19.9221 43.6512 20.7849 42.1049 22.3208C40.5586 23.8566 39.6898 25.9397 39.6898 28.1118M1.76105 19.9221C2.84385 19.9221 3.91605 20.1339 4.91642 20.5455C5.9168 20.9571 6.82576 21.5603 7.59142 22.3208C8.35708 23.0813 8.96443 23.9841 9.3788 24.9777C9.79317 25.9713 10.0064 27.0363 10.0064 28.1118" stroke="white" stroke-width="2" stroke-linecap="round" stroke-linejoin="round"/>
  <path d="M24.5386 19.9999V10.0459H25.1978V19.9999H24.5386ZM26.6006 13.1332C26.5577 12.7651 26.3808 12.48 26.07 12.2778C25.7592 12.073 25.368 11.9706 24.8963 11.9706C24.5587 11.9706 24.2666 12.0224 24.0201 12.1261C23.7736 12.2272 23.582 12.3672 23.4453 12.5461C23.3114 12.7223 23.2444 12.9232 23.2444 13.1488C23.2444 13.338 23.2899 13.5013 23.381 13.6387C23.4748 13.7761 23.5967 13.8914 23.7468 13.9847C23.8995 14.0755 24.063 14.1519 24.2372 14.2141C24.4113 14.2738 24.5788 14.323 24.7396 14.3619L25.5435 14.5641C25.8061 14.6263 26.0754 14.7106 26.3514 14.8168C26.6274 14.9231 26.8833 15.0631 27.1191 15.2368C27.3549 15.4104 27.5451 15.6256 27.6898 15.8822C27.8372 16.1388 27.9109 16.446 27.9109 16.8037C27.9109 17.2548 27.7903 17.6553 27.5491 18.0052C27.3107 18.3552 26.9637 18.6312 26.5081 18.8334C26.0553 19.0356 25.5073 19.1367 24.8642 19.1367C24.2479 19.1367 23.7146 19.0421 23.2645 18.8529C22.8143 18.6636 22.4619 18.3954 22.2074 18.048C21.9528 17.6981 21.8121 17.2833 21.7853 16.8037H23.0314C23.0555 17.0915 23.1519 17.3313 23.3207 17.5231C23.4922 17.7123 23.7106 17.8536 23.9759 17.9469C24.2439 18.0376 24.5373 18.083 24.8562 18.083C25.2072 18.083 25.5194 18.0299 25.7927 17.9236C26.0687 17.8147 26.2857 17.6644 26.4438 17.4725C26.6019 17.2781 26.681 17.0513 26.681 16.7921C26.681 16.5562 26.6113 16.3631 26.4719 16.2127C26.3353 16.0624 26.1491 15.938 25.9133 15.8395C25.6801 15.7409 25.4162 15.6541 25.1214 15.5789L24.1487 15.3223C23.4896 15.1486 22.967 14.8933 22.5812 14.5563C22.198 14.2193 22.0064 13.7735 22.0064 13.2187C22.0064 12.7599 22.135 12.3594 22.3923 12.0173C22.6495 11.6751 22.9979 11.4094 23.4373 11.2202C23.8768 11.0283 24.3725 10.9324 24.9245 10.9324C25.4818 10.9324 25.9735 11.027 26.3996 11.2163C26.8283 11.4055 27.166 11.666 27.4125 11.9978C27.659 12.327 27.7876 12.7055 27.7983 13.1332H26.6006Z" fill="white"/>
</svg>