<svg xmlns="http://www.w3.org/2000/svg" width="39" height="40" viewBox="0 0 39 40" fill="none">
  <path d="M25.2553 0.657715C29.1314 0.657715 31.0694 0.657715 33.1892 1.32261C34.3145 1.73345 35.3364 2.38439 36.1837 3.23C37.031 4.07562 37.6832 5.09555 38.0948 6.21865C38.7611 8.33422 38.7611 10.2685 38.7611 14.143V25.8512C38.7611 29.7317 38.7611 31.6781 38.0948 33.7694C37.6832 34.8925 37.031 35.9125 36.1837 36.7581C35.3364 37.6037 34.3145 38.2546 33.1892 38.6655C31.0694 39.3425 29.1314 39.3425 25.2553 39.3425H13.5058C9.61759 39.3425 7.66742 39.3425 5.5719 38.6776C4.44659 38.2667 3.42465 37.6158 2.57736 36.7702C1.73008 35.9246 1.07786 34.9046 0.666206 33.7815C0 31.666 0 29.7317 0 25.8572V14.1369C0 10.2564 0 8.31004 0.666206 6.21865C1.07786 5.09555 1.73008 4.07562 2.57736 3.23C3.42465 2.38439 4.44659 1.73345 5.5719 1.32261C7.69165 0.657715 9.6297 0.657715 13.5058 0.657715H25.2553Z" fill="#00D632"/>
  <path d="M25.7216 15.0434C26.0244 15.3456 26.5271 15.3456 26.8117 15.0434L28.3258 13.4718C28.6468 13.1696 28.6287 12.6256 28.2895 12.2992C27.0997 11.2649 25.7165 10.476 24.2196 9.97808L24.698 7.68117C24.801 7.17948 24.4255 6.70801 23.9228 6.70801H20.9915C20.8083 6.70997 20.6313 6.77468 20.4902 6.89132C20.3491 7.00796 20.2524 7.16944 20.2163 7.34872L19.7924 9.39176C15.892 9.59123 12.5852 11.5678 12.5852 15.6176C12.5852 19.1234 15.3167 20.6285 18.2056 21.6621C20.937 22.7017 22.3845 23.0886 22.3845 24.5514C22.3845 26.0564 20.9431 26.9389 18.8112 26.9389C16.8732 26.9389 14.8382 26.2922 13.2635 24.7146C13.1904 24.6414 13.1036 24.5835 13.0079 24.5439C12.9123 24.5043 12.8098 24.4839 12.7063 24.4839C12.6028 24.4839 12.5004 24.5043 12.4047 24.5439C12.3091 24.5835 12.2223 24.6414 12.1492 24.7146L10.5139 26.3466C10.3601 26.5006 10.2737 26.7093 10.2737 26.9268C10.2737 27.1444 10.3601 27.353 10.5139 27.5071C11.7858 28.7583 13.3968 29.665 15.2331 30.1667L14.7849 32.3246C14.6819 32.8263 15.0514 33.2917 15.5541 33.2977L18.4914 33.3219C18.6767 33.3227 18.8566 33.2593 19.0002 33.1424C19.1438 33.0255 19.2423 32.8625 19.2788 32.6812L19.7027 30.6321C24.3952 30.3178 27.2539 27.7368 27.2539 23.9711C27.2539 20.5015 24.4073 19.0388 20.9552 17.848C18.9808 17.1166 17.2729 16.6149 17.2729 15.1099C17.2729 13.6471 18.8657 13.0668 20.4646 13.0668C22.4996 13.0668 24.4558 13.907 25.7337 15.0555L25.7216 15.0434Z" fill="white"/>
</svg>