<svg xmlns="http://www.w3.org/2000/svg" width="47" height="31" viewBox="0 0 47 31" fill="none">
  <path d="M17.5244 0.745717C17.2818 0.509425 16.9932 0.321875 16.6752 0.193885C16.3573 0.065896 16.0162 0 15.6717 0C15.3272 0 14.9862 0.065896 14.6682 0.193885C14.3502 0.321875 14.0616 0.509425 13.819 0.745717L0.771865 13.3509C0.527287 13.5852 0.333161 13.8641 0.200683 14.1713C0.0682059 14.4785 0 14.808 0 15.1408C0 15.4736 0.0682059 15.8031 0.200683 16.1103C0.333161 16.4176 0.527287 16.6964 0.771865 16.9307L13.819 29.5359C14.0616 29.7722 14.3502 29.9598 14.6682 30.0877C14.9862 30.2157 15.3272 30.2816 15.6717 30.2816C16.0162 30.2816 16.3573 30.2157 16.6752 30.0877C16.9932 29.9598 17.2818 29.7722 17.5244 29.5359C17.769 29.3015 17.9631 29.0227 18.0956 28.7155C18.2281 28.4083 18.2963 28.0788 18.2963 27.746C18.2963 27.4132 18.2281 27.0837 18.0956 26.7764C17.9631 26.4692 17.769 26.1904 17.5244 25.956L6.30386 15.1408L17.5244 4.32558C17.769 4.09122 17.9631 3.81239 18.0956 3.50518C18.2281 3.19797 18.2963 2.86846 18.2963 2.53565C18.2963 2.20284 18.2281 1.87333 18.0956 1.56612C17.9631 1.25891 17.769 0.98008 17.5244 0.745717ZM46.2281 13.3509L33.181 0.745717C32.9377 0.51066 32.6488 0.324203 32.331 0.196991C32.0131 0.0697784 31.6724 0.00430239 31.3283 0.00430239C30.6334 0.00430239 29.967 0.270997 29.4756 0.745717C29.2323 0.980774 29.0393 1.25983 28.9076 1.56695C28.776 1.87406 28.7082 2.20323 28.7082 2.53565C28.7082 3.20701 28.9842 3.85086 29.4756 4.32558L40.6961 15.1408L29.4756 25.956C29.231 26.1904 29.0369 26.4692 28.9044 26.7764C28.7719 27.0837 28.7037 27.4132 28.7037 27.746C28.7037 28.0788 28.7719 28.4083 28.9044 28.7155C29.0369 29.0227 29.231 29.3015 29.4756 29.5359C29.7182 29.7722 30.0068 29.9598 30.3248 30.0877C30.6427 30.2157 30.9838 30.2816 31.3283 30.2816C31.6728 30.2816 32.0138 30.2157 32.3318 30.0877C32.6498 29.9598 32.9384 29.7722 33.181 29.5359L46.2281 16.9307C46.4727 16.6964 46.6668 16.4176 46.7993 16.1103C46.9318 15.8031 47 15.4736 47 15.1408C47 14.808 46.9318 14.4785 46.7993 14.1713C46.6668 13.8641 46.4727 13.5852 46.2281 13.3509Z" fill="white"/>
</svg>